<svg xmlns="http://www.w3.org/2000/svg" viewBox="0 0 64 64" aria-labelledby="title" role="img">
  <title>Yes Help Network logo mark</title>
  <defs>
    <linearGradient id="ringGrad" x1="0" y1="1" x2="1" y2="0">
      <stop offset="0" stop-color="#2e7d56"/>
      <stop offset="1" stop-color="#1e5a3e"/>
    </linearGradient>
  </defs>
  <rect x="2" y="2" width="60" height="60" rx="14" fill="#ffffff"/>
  <circle cx="32" cy="32" r="27" fill="none" stroke="url(#ringGrad)" stroke-width="4" stroke-dasharray="0 7" stroke-linecap="round"/>
  <g transform="translate(0,2)">
    <circle cx="32" cy="30" r="14" fill="#e63946"/>
    <path d="M32 15c-3 2-5 6-5 10v16c0 2 2 3 5 3s5-1 5-3V25c0-4-2-8-5-10z" fill="#111" opacity=".85"/>
    <circle cx="32" cy="30" r="2.2" fill="#111"/>
    <circle cx="26.5" cy="27.5" r="2.2" fill="#111"/>
    <circle cx="37.5" cy="27.5" r="2.2" fill="#111"/>
    <circle cx="26.5" cy="33" r="2.2" fill="#111"/>
    <circle cx="37.5" cy="33" r="2.2" fill="#111"/>
    <path d="M29.5 19c1.2-1.9 2.9-3.2 2.9-3.2S34 17 35 19" fill="none" stroke="#111" stroke-width="3" stroke-linecap="round"/>
  </g>
</svg>


